<?xml version="1.0" standalone="no"?>
<!DOCTYPE svg PUBLIC "-//W3C//DTD SVG 20010904//EN"
 "http://www.w3.org/TR/2001/REC-SVG-20010904/DTD/svg10.dtd">
<svg version="1.0" xmlns="http://www.w3.org/2000/svg"
 width="400.000000pt" height="400.000000pt" viewBox="0 0 400.000000 400.000000"
 preserveAspectRatio="xMidYMid meet">

<g transform="translate(0.000000,400.000000) scale(0.100000,-0.100000)"
fill="#000000" stroke="none">
<path d="M1405 3325 c52 -18 82 -54 90 -107 3 -24 5 -287 3 -585 l-3 -542 -34
-35 c-19 -20 -43 -36 -52 -36 -10 0 -20 -4 -24 -9 -3 -6 38 -10 101 -9 l107 0
13 -31 c17 -42 86 -114 142 -150 52 -33 139 -61 187 -61 l32 0 5 -65 c6 -72
40 -141 82 -169 14 -9 48 -21 74 -28 102 -23 255 53 424 210 47 44 74 64 63
47 -11 -17 -77 -116 -146 -220 -69 -105 -152 -231 -185 -280 -32 -50 -99 -131
-149 -181 -75 -76 -105 -98 -175 -132 -114 -54 -173 -66 -311 -60 -126 6 -196
26 -267 78 -153 110 -154 299 -2 444 189 180 494 193 608 26 16 -25 22 -47 22
-90 0 -87 -31 -146 -103 -198 -102 -73 -252 -92 -380 -48 -83 28 -99 16 -20
-15 47 -19 78 -23 168 -23 99 -1 116 2 167 26 70 33 141 96 168 152 26 54 27
146 1 201 -40 89 -154 153 -286 162 -184 13 -393 -103 -471 -262 -25 -51 -29
-72 -29 -140 0 -70 4 -87 30 -134 50 -91 139 -153 266 -186 50 -13 93 -16 194
-13 113 4 143 9 224 37 184 62 351 188 461 347 28 41 92 161 141 267 49 106
112 229 139 274 28 45 50 84 50 87 0 19 -34 -6 -130 -98 -123 -117 -211 -184
-294 -222 -66 -30 -153 -42 -185 -24 -45 23 -65 126 -40 198 9 27 17 32 57 38
334 46 741 267 822 446 28 62 26 101 -9 140 -24 27 -36 32 -88 36 -73 5 -186
-22 -311 -74 -48 -20 -99 -41 -114 -47 -24 -10 -31 -6 -78 36 -52 46 -181 117
-214 117 -11 0 -42 51 -98 164 l-81 164 123 198 c206 332 221 350 327 379 46
13 43 13 -87 14 -123 0 -132 -1 -103 -14 36 -15 48 -42 34 -76 -5 -13 -111
-188 -236 -389 -309 -496 -312 -501 -340 -535 l-24 -30 -1 477 0 477 30 34
c16 19 44 39 62 44 25 9 -15 11 -177 12 -193 0 -207 -1 -170 -14z m499 -814
l35 -68 -54 -12 c-30 -7 -75 -23 -100 -37 -25 -13 -48 -24 -50 -24 -2 0 26 47
62 105 36 58 67 105 69 105 2 0 19 -31 38 -69z m120 -247 c92 -189 95 -212 31
-248 l-30 -17 33 4 c17 2 32 0 32 -5 0 -4 -15 -29 -34 -55 -18 -27 -41 -63
-51 -82 l-17 -34 -65 6 c-85 8 -178 52 -238 111 -25 25 -45 49 -45 54 0 5 29
8 65 6 36 -2 65 -1 65 1 0 3 -16 11 -35 19 -53 23 -75 67 -75 155 0 88 16 121
85 170 49 35 134 69 177 70 24 1 32 -10 102 -155z m210 102 c39 -19 93 -54
120 -78 l49 -43 -70 -47 -69 -46 -62 124 c-34 68 -57 124 -50 124 6 0 43 -15
82 -34z m707 -25 c73 -90 -69 -264 -319 -390 -140 -71 -355 -131 -466 -131
l-46 0 15 38 c9 20 30 61 48 90 l31 52 118 0 c72 0 118 4 118 10 0 6 -7 10
-15 10 -43 0 -138 71 -119 89 33 32 110 91 119 91 6 0 26 -26 45 -57 58 -101
63 -108 67 -96 5 14 -19 61 -58 120 -16 23 -29 46 -29 52 0 13 114 77 183 103
95 36 152 48 221 45 58 -2 71 -6 87 -26z"/>
</g>
</svg>
